<svg width="24" height="26" viewBox="0 0 24 26" fill="none" xmlns="http://www.w3.org/2000/svg">
<path d="M20.743 14.3685L19.8777 15.2705L20.743 14.3685ZM3.25687 14.3685L4.12224 15.2705L3.25687 14.3685ZM6.70449 8.82732C6.70449 7.15826 7.18387 5.75714 8.03058 4.79183C8.85658 3.85012 10.134 3.20459 11.9999 3.20459V0.70459C9.50222 0.70459 7.50694 1.59757 6.15113 3.1433C4.81602 4.66543 4.20449 6.70067 4.20449 8.82732H6.70449ZM6.70449 10.9546V8.82732H4.20449V10.9546H6.70449ZM4.36358 17.8864C3.90572 17.8864 3.43176 17.4785 3.43176 16.8455H0.931763C0.931763 18.7429 2.41147 20.3864 4.36358 20.3864V17.8864ZM19.6363 17.8864H4.36358V20.3864H19.6363V17.8864ZM20.5681 16.8455C20.5681 17.4785 20.0942 17.8864 19.6363 17.8864V20.3864C21.5884 20.3864 23.0681 18.7429 23.0681 16.8455H20.5681ZM17.2954 8.82732V10.9546H19.7954V8.82732H17.2954ZM11.9999 3.20459C13.8659 3.20459 15.1433 3.85012 15.9693 4.79183C16.816 5.75714 17.2954 7.15826 17.2954 8.82732H19.7954C19.7954 6.70067 19.1839 4.66543 17.8488 3.1433C16.4929 1.59757 14.4977 0.70459 11.9999 0.70459V3.20459ZM3.43176 16.8455C3.43176 16.2147 3.70455 15.6712 4.12224 15.2705L2.3915 13.4665C1.54849 14.2752 0.931763 15.4472 0.931763 16.8455H3.43176ZM19.8777 15.2705C20.2953 15.6712 20.5681 16.2147 20.5681 16.8455H23.0681C23.0681 15.4472 22.4514 14.2752 21.6084 13.4665L19.8777 15.2705ZM17.2954 10.9546C17.2954 12.0177 17.7739 12.8999 18.2791 13.5703C18.78 14.2348 19.4139 14.8256 19.8777 15.2705L21.6084 13.4665C21.094 12.9729 20.629 12.5345 20.2756 12.0656C19.9266 11.6026 19.7954 11.2471 19.7954 10.9546H17.2954ZM4.20449 10.9546C4.20449 11.2471 4.07326 11.6026 3.72429 12.0656C3.37087 12.5345 2.90594 12.9729 2.3915 13.4665L4.12224 15.2705C4.58602 14.8256 5.2199 14.2348 5.72074 13.5703C6.22603 12.8999 6.70449 12.0177 6.70449 10.9546H4.20449Z" fill="#868686"/>
<path d="M15.4927 23.5144C15.8772 22.9411 15.7241 22.1646 15.1507 21.7801C14.5773 21.3956 13.8008 21.5487 13.4163 22.122L15.4927 23.5144ZM10.5836 22.122C10.1991 21.5487 9.42256 21.3956 8.8492 21.7801C8.27584 22.1646 8.12274 22.9411 8.50724 23.5144L10.5836 22.122ZM13.4163 22.122C13.2967 22.3004 13.1104 22.4694 12.8588 22.5947L13.9737 24.8324C14.5837 24.5285 15.1134 24.08 15.4927 23.5144L13.4163 22.122ZM12.8588 22.5947C12.607 22.7202 12.3102 22.7912 12 22.7912V25.2912C12.684 25.2912 13.364 25.1362 13.9737 24.8324L12.8588 22.5947ZM12 22.7912C11.6897 22.7912 11.3929 22.7202 11.1411 22.5947L10.0262 24.8324C10.636 25.1362 11.316 25.2912 12 25.2912V22.7912ZM11.1411 22.5947C10.8896 22.4694 10.7032 22.3004 10.5836 22.122L8.50724 23.5144C8.88652 24.08 9.41621 24.5285 10.0262 24.8324L11.1411 22.5947Z" fill="#868686"/>
</svg>
