<svg width="24" height="28" viewBox="0 0 24 28" fill="none" xmlns="http://www.w3.org/2000/svg">
<path d="M12.217 10.4543C12.6633 10.008 13.3869 10.008 13.8332 10.4543C14.2795 10.9007 14.2795 11.6243 13.8332 12.0706L9.0653 16.8385C8.41732 17.4865 8.37971 18.5773 9.0653 19.2629C9.75089 19.9485 10.8417 19.9108 11.4897 19.2629L20.379 10.3735C22.2094 8.5431 22.1093 5.63883 20.379 3.90855C18.6487 2.17827 15.7445 2.07812 13.914 3.90855L5.02469 12.7979C2.10957 15.713 2.16393 20.4427 5.02469 23.3035C7.88544 26.1642 12.6152 26.2186 15.5303 23.3035L20.2982 18.5356C20.7445 18.0892 21.4681 18.0892 21.9144 18.5356C22.3608 18.9819 22.3608 19.7055 21.9144 20.1518L17.1465 24.9197C13.3303 28.7359 7.15361 28.6649 3.40844 24.9197C-0.336731 21.1746 -0.407728 14.9978 3.40844 11.1816L12.2978 2.29231C15.0467 -0.456622 19.3963 -0.306636 21.9952 2.29231C24.5942 4.89125 24.7442 9.24084 21.9952 11.9898L13.1059 20.8791C11.5893 22.3958 9.05314 22.4832 7.44905 20.8791C5.84496 19.275 5.93242 16.7389 7.44905 15.2223L12.217 10.4543Z" fill="#868686"/>
</svg>
