<svg width="30" height="30" viewBox="0 0 30 30" fill="none" xmlns="http://www.w3.org/2000/svg">
<path fill-rule="evenodd" clip-rule="evenodd" d="M13.58 2.10532e-07L13.6425 4.37083e-07C14.4297 4.37083e-07 15.0679 0.638147 15.0679 1.42534C15.0679 2.21253 14.4297 2.85068 13.6425 2.85068C11.4723 2.85068 9.92986 2.85177 8.72421 2.94958C7.53425 3.04612 6.8005 3.22967 6.22309 3.52387C5.06091 4.11603 4.11603 5.06091 3.52387 6.22309C3.22904 6.80173 3.04588 7.53198 2.94951 8.71145C2.85179 9.90756 2.85068 11.436 2.85068 13.5882V16.4118C2.85068 18.564 2.85179 20.0924 2.94951 21.2885C3.04588 22.468 3.22904 23.1983 3.52387 23.7769C4.11603 24.9391 5.06091 25.884 6.22309 26.4761C6.8005 26.7703 7.53425 26.9539 8.72421 27.0504C9.92986 27.1482 11.4723 27.1493 13.6425 27.1493C14.4297 27.1493 15.0679 27.7875 15.0679 28.5747C15.0679 29.3619 14.4297 30 13.6425 30H13.58C11.4862 30 9.82813 30 8.49371 29.8918C7.13033 29.7812 5.97762 29.5504 4.92891 29.0161C3.23034 28.1506 1.84936 26.7697 0.983901 25.0711C0.450183 24.0236 0.219073 22.8764 0.108303 21.5207C-1.9264e-05 20.1949 -1.06573e-05 18.55 2.17226e-07 16.4745V13.5255C-1.06573e-05 11.45 -1.9264e-05 9.80511 0.108303 8.47931C0.219073 7.12355 0.450183 5.97639 0.983901 4.92891C1.84936 3.23034 3.23034 1.84936 4.92891 0.983901C5.97762 0.449556 7.13033 0.218838 8.49371 0.108236C9.82814 -1.88179e-05 11.4862 -1.04374e-05 13.58 2.10532e-07ZM22.1369 8.56227C22.6936 8.00564 23.596 8.00564 24.1527 8.56227L29.5825 13.9921C30.1392 14.5488 30.1392 15.4512 29.5825 16.0079L24.1527 21.4377C23.596 21.9944 22.6936 21.9944 22.1369 21.4377C21.5803 20.8811 21.5803 19.9786 22.1369 19.422L25.1336 16.4253H12.2851C11.4979 16.4253 10.8597 15.7872 10.8597 15C10.8597 14.2128 11.4979 13.5747 12.2851 13.5747H25.1336L22.1369 10.578C21.5803 10.0214 21.5803 9.1189 22.1369 8.56227Z" fill="#868686"/>
</svg>
