<svg width="30" height="30" viewBox="0 0 30 30" fill="none" xmlns="http://www.w3.org/2000/svg">
<path fill-rule="evenodd" clip-rule="evenodd" d="M16.0713 2.72743H11.6071C9.8304 2.72743 8.59455 2.72849 7.63298 2.79515C6.69017 2.86051 6.15344 2.98207 5.74929 3.15679C4.87569 3.53447 4.16543 4.13712 3.7203 4.87836C3.51438 5.22128 3.37111 5.67668 3.29408 6.47664C3.21552 7.29252 3.21427 8.34112 3.21427 9.8486V20.1516C3.21427 21.659 3.21552 22.7077 3.29408 23.5235C3.37111 24.3235 3.51438 24.7789 3.7203 25.1218C4.16543 25.8631 4.87569 26.4657 5.74929 26.8434C6.15344 27.0181 6.69017 27.1397 7.63298 27.205C8.59455 27.2717 9.8304 27.2727 11.6071 27.2727H18.3927C20.1694 27.2727 21.4053 27.2717 22.3668 27.205C23.3096 27.1397 23.8464 27.0181 24.2505 26.8434C25.1241 26.4657 25.8344 25.8631 26.2795 25.1218C26.4854 24.7789 26.6287 24.3235 26.7057 23.5235C26.7843 22.7077 26.7855 21.659 26.7855 20.1516V11.8183H23.3927L23.3295 11.8183C22.3833 11.8183 21.5776 11.8183 20.9161 11.7725C20.2212 11.7243 19.5452 11.6188 18.8989 11.3394C17.9244 10.9181 17.1322 10.2459 16.6358 9.41917C16.3064 8.87078 16.1821 8.29716 16.1253 7.70753C16.0713 7.14627 16.0713 6.46267 16.0713 5.65984L16.0713 5.6062V2.72743ZM25.4056 9.09103L19.2856 3.89832V5.6062C19.2856 6.47726 19.2868 7.04854 19.3289 7.48544C19.3694 7.90642 19.4397 8.08118 19.4997 8.18102C19.688 8.49462 19.9885 8.74959 20.3581 8.90937C20.4758 8.96024 20.6817 9.01988 21.1779 9.05427C21.6928 9.08997 22.3661 9.09103 23.3927 9.09103H25.4056ZM18.4623 0.100643C17.9632 -0.00101675 17.4512 -0.000480492 16.9161 8.33104e-05L16.7961 0.000170008H11.6071H11.5385C9.84653 0.0001561 8.47912 0.000145803 7.37123 0.076949C6.22965 0.156088 5.22284 0.323519 4.29005 0.726788C2.81164 1.36594 1.60966 2.38581 0.856373 3.64021C0.381092 4.43167 0.18376 5.28594 0.090489 6.25456C-2.88265e-05 7.19458 -1.57474e-05 8.35481 4.30957e-07 9.7904V9.8486V20.1516V20.2098C-1.57473e-05 21.6454 -2.89419e-05 22.8056 0.090489 23.7456C0.18376 24.7142 0.381092 25.5685 0.856373 26.36C1.60966 27.6144 2.81164 28.6342 4.29005 29.2734C5.22284 29.6767 6.22965 29.8441 7.37123 29.9232C8.47912 30 9.84653 30 11.5385 30H11.6071H18.3927H18.4613C20.1533 30 21.5207 30 22.6286 29.9232C23.7701 29.8441 24.777 29.6767 25.7098 29.2734C27.1882 28.6342 28.3901 27.6144 29.1434 26.36C29.6187 25.5685 29.816 24.7142 29.9093 23.7456C29.9998 22.8056 29.9998 21.6454 29.9998 20.2098V20.1516V11.2033L29.9999 11.1015C30.0006 10.6475 30.0012 10.213 29.8814 9.78959C29.7764 9.41855 29.6032 9.06384 29.3683 8.73849C29.1001 8.36719 28.7376 8.06035 28.3588 7.73975L28.2738 7.66779L20.963 1.46463L20.8782 1.39257C20.5003 1.07116 20.1387 0.763558 19.7011 0.536022C19.3176 0.336646 18.8996 0.189722 18.4623 0.100643Z" fill="#868686"/>
</svg>
