<svg width="17" height="20" viewBox="0 0 17 20" fill="none" xmlns="http://www.w3.org/2000/svg">
<path fill-rule="evenodd" clip-rule="evenodd" d="M9.09961 1.9007H6.59961C5.60467 1.9007 4.91259 1.9014 4.37411 1.94539C3.84613 1.98853 3.54556 2.06876 3.31923 2.18408C2.83001 2.43335 2.43226 2.8311 2.18299 3.32032C2.06767 3.54665 1.98744 3.84722 1.94431 4.37519C1.90031 4.91368 1.89961 5.60575 1.89961 6.6007V13.4007C1.89961 14.3956 1.90031 15.0877 1.94431 15.6262C1.98744 16.1542 2.06767 16.4548 2.18299 16.6811C2.43226 17.1703 2.83001 17.568 3.31923 17.8173C3.54556 17.9326 3.84613 18.0129 4.37411 18.056C4.91259 18.1 5.60467 18.1007 6.59961 18.1007H10.3996C11.3946 18.1007 12.0866 18.1 12.6251 18.056C13.1531 18.0129 13.4537 17.9326 13.68 17.8173C14.1692 17.568 14.567 17.1703 14.8162 16.6811C14.9315 16.4548 15.0118 16.1542 15.0549 15.6262C15.0989 15.0877 15.0996 14.3956 15.0996 13.4007V7.9007H13.1996L13.1642 7.9007C12.6343 7.90071 12.1832 7.90073 11.8127 7.87046C11.4236 7.83866 11.045 7.76903 10.683 7.58462C10.1374 7.30658 9.69372 6.86294 9.41569 6.31727C9.23128 5.95534 9.16164 5.57674 9.12985 5.18758C9.09958 4.81715 9.09959 4.36597 9.09961 3.8361L9.09961 3.8007V1.9007ZM14.3268 6.1007L10.8996 2.67349V3.8007C10.8996 4.3756 10.9003 4.75265 10.9239 5.04101C10.9466 5.31885 10.9859 5.4342 11.0195 5.50009C11.125 5.70707 11.2932 5.87535 11.5002 5.98081C11.5661 6.01438 11.6815 6.05374 11.9593 6.07644C12.2477 6.1 12.6247 6.1007 13.1996 6.1007H14.3268ZM10.4386 0.167011C10.1591 0.0999149 9.87232 0.100269 9.5727 0.100641L9.5055 0.100698H6.59961H6.5612C5.6137 0.100689 4.84795 0.100682 4.22753 0.151373C3.58824 0.203605 3.02442 0.314109 2.50205 0.580269C1.67414 1.00211 1.00102 1.67523 0.579181 2.50314C0.313022 3.02551 0.202516 3.58933 0.150284 4.22862C0.0995932 4.84904 0.0996006 5.61479 0.0996096 6.56229V6.6007V13.4007V13.4391C0.0996006 14.3866 0.0995932 15.1524 0.150284 15.7728C0.202516 16.4121 0.313022 16.9759 0.579181 17.4983C1.00102 18.3262 1.67414 18.9993 2.50205 19.4211C3.02442 19.6873 3.58824 19.7978 4.22753 19.85C4.84795 19.9007 5.6137 19.9007 6.5612 19.9007H6.59961H10.3996H10.438C11.3855 19.9007 12.1513 19.9007 12.7717 19.85C13.411 19.7978 13.9748 19.6873 14.4972 19.4211C15.3251 18.9993 15.9982 18.3262 16.42 17.4983C16.6862 16.9759 16.7967 16.4121 16.8489 15.7728C16.8996 15.1524 16.8996 14.3866 16.8996 13.4391V13.4007V7.49481L16.8997 7.42761C16.9 7.12798 16.9004 6.84123 16.8333 6.56175C16.7745 6.31686 16.6775 6.08275 16.5459 5.86802C16.3958 5.62296 16.1928 5.42045 15.9806 5.20885L15.9331 5.16136L11.839 1.06725L11.7915 1.01969C11.5799 0.807556 11.3773 0.604537 11.1323 0.454363C10.9176 0.322774 10.6834 0.225803 10.4386 0.167011Z" fill="#556BF4"/>
</svg>
