<svg width="20" height="20" viewBox="0 0 20 20" fill="none" xmlns="http://www.w3.org/2000/svg">
<path d="M7.40932 0.0996094L12.9229 0.101295C14.8668 0.121669 15.8485 0.329547 16.8662 0.873809C17.8378 1.39346 18.6058 2.1614 19.1254 3.13306C19.6999 4.20728 19.8996 5.24141 19.8996 7.40932V12.5899C19.8996 14.7578 19.6999 15.7919 19.1254 16.8662C18.6058 17.8378 17.8378 18.6058 16.8662 19.1254C15.7919 19.6999 14.7578 19.8996 12.5899 19.8996H7.40932C5.24141 19.8996 4.20728 19.6999 3.13306 19.1254C2.1614 18.6058 1.39346 17.8378 0.873809 16.8662C0.299311 15.7919 0.0996094 14.7578 0.0996094 12.5899L0.101295 7.07627C0.121669 5.13244 0.329547 4.15074 0.873809 3.13306C1.39346 2.1614 2.1614 1.39346 3.13306 0.873809C4.20728 0.299311 5.24141 0.0996094 7.40932 0.0996094ZM13.0891 11.2912L9.36123 15.8215C9.04574 16.2049 8.47936 16.2603 8.09547 15.9454L6.05365 14.2705L3.24778 17.0261C3.46725 17.223 3.71225 17.3939 3.98193 17.5381C4.67786 17.9103 5.35427 18.066 6.84716 18.0946L7.40932 18.0996H12.5899L13.1521 18.0946C14.4693 18.0694 15.1509 17.9452 15.7711 17.6607L16.0173 17.5381C16.6753 17.1863 17.1863 16.6753 17.5381 16.0173C17.638 15.8307 17.7222 15.6454 17.7926 15.4455L13.0891 11.2912ZM12.5899 1.89961H7.40932L6.84716 1.90459C5.5299 1.92987 4.84832 2.05402 4.22811 2.33856L3.98193 2.46107C3.32396 2.81296 2.81296 3.32396 2.46107 3.98193L2.33856 4.22811C2.01608 4.93101 1.89961 5.71275 1.89961 7.40932V12.5899L1.90459 13.1521C1.92632 14.2846 2.02114 14.9472 2.22813 15.505L5.36897 12.42C5.69695 12.0979 6.21498 12.0747 6.57041 12.3663L8.54231 13.9838L12.2915 9.42774C12.6151 9.03439 13.2005 8.98784 13.5823 9.32508L18.091 13.3101C18.0924 13.2584 18.0936 13.2058 18.0946 13.1521L18.0996 12.5899V7.40932L18.0946 6.84716C18.0694 5.5299 17.9452 4.84832 17.6607 4.22811L17.5381 3.98193C17.1863 3.32396 16.6753 2.81296 16.0173 2.46107C15.3214 2.08889 14.645 1.93324 13.1521 1.90459L12.5899 1.89961ZM6.49961 4.99961C7.32804 4.99961 7.99961 5.67118 7.99961 6.49961C7.99961 7.32804 7.32804 7.99961 6.49961 7.99961C5.67118 7.99961 4.99961 7.32804 4.99961 6.49961C4.99961 5.67118 5.67118 4.99961 6.49961 4.99961Z" fill="#556BF4"/>
</svg>
