<svg width="24" height="24" viewBox="0 0 24 24" fill="none" xmlns="http://www.w3.org/2000/svg">
<path fill-rule="evenodd" clip-rule="evenodd" d="M2.92893 2.92893C4.73721 1.12066 7.23892 0 10 0C12.7611 0 15.2628 1.12066 17.0711 2.92893C18.8793 4.73721 20 7.23892 20 10C20 12.7611 18.8793 15.2628 17.0711 17.0711C15.2628 18.8793 12.7611 20 10 20C7.23892 20 4.73721 18.8793 2.92893 17.0711C1.12066 15.2628 0 12.7611 0 10C0 7.23892 1.12066 4.73721 2.92893 2.92893ZM10 2.5C7.92859 2.5 6.0553 3.3381 4.6967 4.6967C3.3381 6.0553 2.5 7.92859 2.5 10C2.5 12.0714 3.3381 13.9447 4.6967 15.3033C6.0553 16.6619 7.92859 17.5 10 17.5C12.0714 17.5 13.9447 16.6619 15.3033 15.3033C16.6619 13.9447 17.5 12.0714 17.5 10C17.5 7.92859 16.6619 6.0553 15.3033 4.6967C13.9447 3.3381 12.0714 2.5 10 2.5Z" fill="#AEAEAE"/>
<path fill-rule="evenodd" clip-rule="evenodd" d="M16.6243 16.3565C17.1124 15.8684 17.9039 15.8684 18.392 16.3565L23.1435 21.108C23.6316 21.5961 23.6316 22.3876 23.1435 22.8757C22.6553 23.3639 21.8639 23.3639 21.3757 22.8757L16.6243 18.1243C16.1361 17.6361 16.1361 16.8447 16.6243 16.3565Z" fill="#AEAEAE"/>
</svg>
