<svg width="32" height="29" viewBox="0 0 32 29" fill="none" xmlns="http://www.w3.org/2000/svg">
<path fill-rule="evenodd" clip-rule="evenodd" d="M0.552002 13.4869C0.552002 5.85262 7.68013 0 16.026 0C24.3719 0 31.5 5.85262 31.5 13.4869C31.5 21.1212 24.3719 26.9739 16.026 26.9739C14.1754 26.9739 12.3965 26.6908 10.7456 26.1692C8.79838 27.9881 5.96909 28.8624 2.50811 28.9985C1.09825 29.0539 0.0806467 27.5863 0.670985 26.2726C1.50847 24.3958 2.59055 22.2443 2.71886 20.3677C1.34846 18.3705 0.552002 16.0135 0.552002 13.4869ZM16.026 2.69767C8.76842 2.69767 3.24745 7.71387 3.24745 13.4869C3.24745 15.56 3.94104 17.5049 5.16372 19.1529C5.33626 19.3854 5.42942 19.6674 5.42942 19.957C5.42942 22.1607 4.55169 24.2399 3.65793 26.2132C6.42894 25.9186 8.24681 25.0305 9.34297 23.7395C9.71113 23.3059 10.3116 23.1502 10.8438 23.3502C12.4236 23.944 14.1761 24.2762 16.026 24.2762C23.2836 24.2762 28.8046 19.26 28.8046 13.4869C28.8046 7.71387 23.2836 2.69767 16.026 2.69767Z" fill="#556BF4"/>
</svg>
