<svg width="25" height="26" viewBox="0 0 25 26" fill="none" xmlns="http://www.w3.org/2000/svg">
<path fill-rule="evenodd" clip-rule="evenodd" d="M2.62538 9.98543C1.87541 8.0669 1.34973 6.58332 1.11662 5.63506C0.829123 4.4655 0.345965 3.17054 0.82854 1.99132C1.12179 1.27474 1.73898 0.697016 2.56737 0.499231C3.65312 0.24 4.67842 0.753192 5.61023 1.25243C7.64228 2.34116 18.2686 7.89924 20.8339 9.24881C22.3319 10.037 24.4877 10.8809 24.567 12.8622C24.6436 14.7794 22.7886 15.6413 21.3488 16.3987C16.0881 19.166 10.8599 21.9963 5.58323 24.7333C4.62399 25.2309 3.5676 25.7726 2.4568 25.4918C1.54765 25.2619 0.939394 24.5869 0.69834 23.8356C0.484804 23.1701 0.575963 22.4851 0.735211 21.8211C1.20856 19.8474 1.8695 17.918 2.60296 16.0275C3.09386 14.7622 3.96544 13.7166 5.06103 12.9935C3.97764 12.2737 3.11491 11.2377 2.62538 9.98543ZM9.95921 12.145C11.1301 12.3809 11.7212 12.5081 11.8453 12.7119C11.957 12.8954 11.9562 13.1268 11.8433 13.3095C11.7117 13.5223 11.0672 13.6475 9.77826 13.8977C8.88952 14.0703 8.16004 14.2112 7.93559 14.2525C6.46967 14.5222 5.25606 15.5084 4.73392 16.8542C4.10946 18.4638 3.55556 20.0726 3.11539 21.741C2.67086 23.426 2.59655 23.7076 4.53077 22.7043C9.87221 19.9337 15.1675 17.0738 20.4902 14.2674C21.6744 13.6428 22.2802 13.308 22.2833 12.9677C22.2864 12.6305 21.698 12.288 20.4954 11.6532C15.1796 8.8474 9.82912 6.10592 4.53077 3.26719C2.62737 2.24739 2.7157 2.6012 3.22041 4.62286C3.60755 6.17357 4.17273 7.66571 4.75422 9.15324C5.27818 10.4936 6.48852 11.4753 7.94969 11.745C8.62135 11.869 9.2897 12.0101 9.95921 12.145Z" fill="#556BF4"/>
</svg>
